<svg width="25" height="25" viewBox="0 0 25 25" fill="none" xmlns="http://www.w3.org/2000/svg">
<path d="M19.8773 15.7698L17.3373 15.4798C16.7273 15.4098 16.1273 15.6198 15.6973 16.0498L13.8573 17.8898C11.0273 16.4498 8.70727 14.1398 7.26727 11.2998L9.11727 9.44977C9.54727 9.01977 9.75727 8.40977 9.68727 7.80977L9.39727 5.28977C9.28727 4.27977 8.42727 3.50977 7.41727 3.50977H5.68727C4.55727 3.50977 3.61727 4.44977 3.68727 5.57977C4.21727 14.1198 11.0473 20.9398 19.5773 21.4698C20.7073 21.5398 21.6473 20.5998 21.6473 19.4698V17.7398C21.6573 16.7398 20.8873 15.8798 19.8773 15.7698Z" fill="#202224"/>
</svg>
