<svg width="25" height="25" viewBox="0 0 25 25" fill="none" xmlns="http://www.w3.org/2000/svg">
<path d="M19.7168 5.41C17.8468 3.53 15.3568 2.5 12.7068 2.5C7.2468 2.5 2.7968 6.95 2.7968 12.41C2.7968 14.16 3.2568 15.86 4.1168 17.36L2.7168 22.5L7.9668 21.12C9.4168 21.91 11.0468 22.33 12.7068 22.33C18.1668 22.33 22.6168 17.88 22.6168 12.42C22.6168 9.77 21.5868 7.28 19.7168 5.41ZM12.7068 20.65C11.2268 20.65 9.7768 20.25 8.5068 19.5L8.2068 19.32L5.0868 20.14L5.9168 17.1L5.7168 16.79C4.8968 15.48 4.4568 13.96 4.4568 12.41C4.4568 7.87 8.1568 4.17 12.6968 4.17C14.8968 4.17 16.9668 5.03 18.5168 6.59C20.0768 8.15 20.9268 10.22 20.9268 12.42C20.9468 16.96 17.2468 20.65 12.7068 20.65ZM17.2268 14.49C16.9768 14.37 15.7568 13.77 15.5368 13.68C15.3068 13.6 15.1468 13.56 14.9768 13.8C14.8068 14.05 14.3368 14.61 14.1968 14.77C14.0568 14.94 13.9068 14.96 13.6568 14.83C13.4068 14.71 12.6068 14.44 11.6668 13.6C10.9268 12.94 10.4368 12.13 10.2868 11.88C10.1468 11.63 10.2668 11.5 10.3968 11.37C10.5068 11.26 10.6468 11.08 10.7668 10.94C10.8868 10.8 10.9368 10.69 11.0168 10.53C11.0968 10.36 11.0568 10.22 10.9968 10.1C10.9368 9.98 10.4368 8.76 10.2368 8.26C10.0368 7.78 9.8268 7.84 9.6768 7.83C9.5268 7.83 9.3668 7.83 9.1968 7.83C9.0268 7.83 8.7668 7.89 8.5368 8.14C8.3168 8.39 7.6768 8.99 7.6768 10.21C7.6768 11.43 8.5668 12.61 8.6868 12.77C8.8068 12.94 10.4368 15.44 12.9168 16.51C13.5068 16.77 13.9668 16.92 14.3268 17.03C14.9168 17.22 15.4568 17.19 15.8868 17.13C16.3668 17.06 17.3568 16.53 17.5568 15.95C17.7668 15.37 17.7668 14.88 17.6968 14.77C17.6268 14.66 17.4768 14.61 17.2268 14.49Z" fill="#202224"/>
</svg>
