<svg width="144" height="25" viewBox="0 0 144 25" fill="none" xmlns="http://www.w3.org/2000/svg">
<path d="M0.979434 0.781247L10.0263 0.781247L9.99354 20.4219H18.8685L18.8654 24H0.959171L0.979434 0.781247ZM22.4308 20.7187C22.4312 20.2292 22.5202 19.7708 22.6976 19.3437C22.8855 18.9062 23.1723 18.5312 23.558 18.2187C23.9541 17.8958 24.4543 17.6406 25.0586 17.4531C25.663 17.2656 26.3922 17.1719 27.2464 17.1719C28.0901 17.1719 28.814 17.2656 29.418 17.4531C30.0324 17.6406 30.5322 17.8958 30.9173 18.2187C31.3025 18.5312 31.5834 18.9062 31.7601 19.3437C31.9472 19.7708 32.0406 20.2292 32.0402 20.7187C32.0397 21.2187 31.9456 21.6875 31.7577 22.125C31.5802 22.5521 31.2986 22.9271 30.9129 23.25C30.5273 23.5625 30.027 23.8125 29.4123 24C28.808 24.1875 28.0839 24.2812 27.2402 24.2812C26.386 24.2812 25.6569 24.1875 25.0529 24C24.4489 23.8125 23.9491 23.5625 23.5536 23.25C23.1684 22.9271 22.8823 22.5521 22.6952 22.125C22.5185 21.6875 22.4303 21.2187 22.4308 20.7187ZM44.2712 6.64062L41.5888 0.781247L51.1044 0.781247L62.4592 24.0156H52.256L50.5405 20.2969H41.3843L39.6779 24.0156L35.7248 24.0156L44.2712 6.64062ZM48.903 16.7187L45.9711 10.3437L43.0436 16.7187H48.903ZM65.4933 20.7187C65.4937 20.2292 65.5826 19.7708 65.7601 19.3437C65.948 18.9062 66.2348 18.5312 66.6205 18.2187C67.0166 17.8958 67.5168 17.6406 68.1211 17.4531C68.7255 17.2656 69.4547 17.1719 70.3089 17.1719C71.1526 17.1719 71.8765 17.2656 72.4805 17.4531C73.0949 17.6406 73.5947 17.8958 73.9798 18.2187C74.365 18.5312 74.6459 18.9062 74.8226 19.3437C75.0097 19.7708 75.1031 20.2292 75.1027 20.7187C75.1022 21.2187 75.0081 21.6875 74.8202 22.125C74.6427 22.5521 74.3611 22.9271 73.9754 23.25C73.5898 23.5625 73.0895 23.8125 72.4748 24C71.8705 24.1875 71.1464 24.2812 70.3027 24.2812C69.4485 24.2812 68.7194 24.1875 68.1154 24C67.5114 23.8125 67.0116 23.5625 66.6161 23.25C66.2309 22.9271 65.9448 22.5521 65.7577 22.125C65.581 21.6875 65.4928 21.2187 65.4933 20.7187ZM80.9169 0.781247L92.0888 0.781247C94.1513 0.770831 95.9272 0.953122 97.4165 1.32812C98.9161 1.69271 100.15 2.21875 101.118 2.90625C102.086 3.59375 102.799 4.42187 103.257 5.39062C103.725 6.34895 103.958 7.41666 103.957 8.59374C103.956 9.62499 103.736 10.6146 103.298 11.5625C102.87 12.5 102.203 13.3281 101.296 14.0469C100.4 14.7656 99.2532 15.3385 97.857 15.7656C96.4712 16.1927 94.82 16.4062 92.9033 16.4062H89.9345L89.9279 24H80.8967L80.9169 0.781247ZM89.9375 13C90.6563 12.9896 91.297 12.8802 91.8597 12.6719C92.4224 12.4531 92.8966 12.1562 93.2823 11.7812C93.6681 11.3958 93.9601 10.9375 94.1585 10.4062C94.3673 9.86458 94.472 9.26041 94.4726 8.59374C94.4732 7.93749 94.3695 7.34374 94.1617 6.81249C93.9538 6.28124 93.6521 5.82812 93.2566 5.45312C92.8715 5.0677 92.3978 4.76562 91.8355 4.54687C91.2836 4.32812 90.6535 4.20833 89.9452 4.1875L89.9375 13ZM107.525 20.7187C107.525 20.2292 107.614 19.7708 107.791 19.3437C107.979 18.9062 108.266 18.5312 108.652 18.2187C109.048 17.8958 109.548 17.6406 110.152 17.4531C110.757 17.2656 111.486 17.1719 112.34 17.1719C113.184 17.1719 113.908 17.2656 114.512 17.4531C115.126 17.6406 115.626 17.8958 116.011 18.2187C116.396 18.5312 116.677 18.9062 116.854 19.3437C117.041 19.7708 117.134 20.2292 117.134 20.7187C117.133 21.2187 117.039 21.6875 116.851 22.125C116.674 22.5521 116.392 22.9271 116.007 23.25C115.621 23.5625 115.121 23.8125 114.506 24C113.902 24.1875 113.178 24.2812 112.334 24.2812C111.48 24.2812 110.751 24.1875 110.147 24C109.543 23.8125 109.043 23.5625 108.647 23.25C108.262 22.9271 107.976 22.5521 107.789 22.125C107.612 21.6875 107.524 21.2187 107.525 20.7187ZM123.245 18.8437C124.349 19.4062 125.504 19.8281 126.713 20.1094C127.921 20.3906 129.046 20.5312 130.087 20.5312C131.285 20.5312 132.16 20.3594 132.713 20.0156C133.275 19.6719 133.557 19.2031 133.558 18.6094C133.558 18.4219 133.521 18.2292 133.449 18.0312C133.386 17.8333 133.256 17.6406 133.059 17.4531C132.871 17.2552 132.606 17.0625 132.262 16.875C131.929 16.6771 131.492 16.4844 130.95 16.2969L128.154 15.3437C126.155 14.6562 124.65 13.7292 123.641 12.5625C122.632 11.3854 122.128 9.98958 122.129 8.37499C122.13 7.33333 122.35 6.33333 122.788 5.375C123.226 4.40625 123.888 3.55729 124.775 2.82812C125.661 2.08854 126.776 1.5 128.12 1.0625C129.474 0.624997 131.058 0.406247 132.87 0.406247C133.766 0.406247 134.626 0.458331 135.448 0.562497C136.271 0.666664 137.042 0.80208 137.761 0.968747C138.49 1.13541 139.156 1.32812 139.76 1.54687C140.364 1.75521 140.895 1.96354 141.353 2.17187L139.663 5.21875C139.33 5.01041 138.976 4.82812 138.601 4.67187C138.237 4.51562 137.867 4.38541 137.492 4.28125C137.128 4.17708 136.768 4.09895 136.414 4.04687C136.06 3.99479 135.737 3.96875 135.445 3.96875C134.945 3.96875 134.508 4.03645 134.133 4.17187C133.758 4.29687 133.44 4.46875 133.179 4.6875C132.929 4.89583 132.736 5.13541 132.6 5.40625C132.475 5.66666 132.412 5.92708 132.412 6.18749C132.412 6.41666 132.464 6.64062 132.568 6.85937C132.682 7.0677 132.87 7.27604 133.13 7.48437C133.4 7.68229 133.749 7.88541 134.176 8.09374C134.613 8.29166 135.155 8.49999 135.801 8.71874L137.675 9.34374C139.706 10.0208 141.257 10.9531 142.329 12.1406C143.401 13.3281 143.936 14.7656 143.934 16.4531C143.933 17.5989 143.672 18.6562 143.15 19.625C142.639 20.5937 141.873 21.4323 140.851 22.1406C139.83 22.8385 138.559 23.3854 137.037 23.7812C135.527 24.1667 133.771 24.3594 131.771 24.3594C130.813 24.3594 129.886 24.3073 128.99 24.2031C128.105 24.1094 127.235 23.9635 126.381 23.7656C125.538 23.5677 124.705 23.3177 123.882 23.0156C123.059 22.7135 122.237 22.3594 121.414 21.9531L123.245 18.8437Z" fill="#111111"/>
</svg>
