<svg width="82" height="14" viewBox="0 0 82 14" fill="none" xmlns="http://www.w3.org/2000/svg">
<path d="M0.684062 0.439451L5.77293 0.439451L5.7545 11.4873H10.7467L10.7449 13.5H0.672665L0.684062 0.439451ZM12.7504 11.6543C12.7507 11.3789 12.8007 11.1211 12.9005 10.8809C13.0062 10.6348 13.1675 10.4238 13.3845 10.248C13.6073 10.0664 13.8887 9.92285 14.2286 9.81738C14.5685 9.71191 14.9787 9.65917 15.4592 9.65917C15.9338 9.65917 16.341 9.71191 16.6808 9.81738C17.0264 9.92285 17.3075 10.0664 17.5241 10.248C17.7408 10.4238 17.8988 10.6348 17.9982 10.8809C18.1035 11.1211 18.156 11.3789 18.1557 11.6543C18.1555 11.9355 18.1025 12.1992 17.9968 12.4453C17.897 12.6855 17.7386 12.8965 17.5217 13.0781C17.3047 13.2539 17.0233 13.3945 16.6775 13.5C16.3376 13.6055 15.9303 13.6582 15.4557 13.6582C14.9753 13.6582 14.5651 13.6055 14.2254 13.5C13.8856 13.3945 13.6045 13.2539 13.382 13.0781C13.1654 12.8965 13.0044 12.6855 12.8992 12.4453C12.7998 12.1992 12.7502 11.9355 12.7504 11.6543ZM25.0357 3.73535L23.5268 0.439451L28.8794 0.439451L35.2664 13.5088H29.5271L28.5622 11.417H23.4118L22.452 13.5088H20.2283L25.0357 3.73535ZM27.6411 9.40429L25.9919 5.81836L24.3452 9.40429H27.6411ZM36.9731 11.6543C36.9733 11.3789 37.0234 11.1211 37.1232 10.8809C37.2289 10.6348 37.3902 10.4238 37.6071 10.248C37.83 10.0664 38.1113 9.92285 38.4513 9.81738C38.7912 9.71191 39.2014 9.65917 39.6819 9.65917C40.1565 9.65917 40.5637 9.71191 40.9034 9.81738C41.249 9.92285 41.5302 10.0664 41.7468 10.248C41.9634 10.4238 42.1215 10.6348 42.2208 10.8809C42.3261 11.1211 42.3786 11.3789 42.3784 11.6543C42.3781 11.9355 42.3252 12.1992 42.2195 12.4453C42.1197 12.6855 41.9613 12.8965 41.7443 13.0781C41.5274 13.2539 41.246 13.3945 40.9002 13.5C40.5603 13.6055 40.153 13.6582 39.6784 13.6582C39.1979 13.6582 38.7878 13.6055 38.4481 13.5C38.1083 13.3945 37.8272 13.2539 37.6047 13.0781C37.388 12.8965 37.2271 12.6855 37.1218 12.4453C37.0224 12.1992 36.9729 11.9355 36.9731 11.6543ZM45.6489 0.439451H51.9331C53.0932 0.433592 54.0922 0.536131 54.9299 0.747069C55.7735 0.952147 56.4675 1.24804 57.0121 1.63476C57.5567 2.02148 57.9577 2.4873 58.215 3.03222C58.4782 3.57129 58.6095 4.17187 58.6089 4.83398C58.6084 5.41406 58.4849 5.9707 58.2383 6.5039C57.9976 7.03125 57.6222 7.49707 57.1121 7.90136C56.6079 8.30566 55.963 8.62792 55.1777 8.86816C54.3982 9.10839 53.4694 9.22851 52.3912 9.22851H50.7213L50.7176 13.5H45.6375L45.6489 0.439451ZM50.723 7.3125C51.1273 7.30664 51.4877 7.24511 51.8042 7.12793C52.1207 7.00488 52.3875 6.83789 52.6044 6.62695C52.8214 6.41015 52.9857 6.15234 53.0973 5.85351C53.2148 5.54882 53.2736 5.20898 53.274 4.83398C53.2743 4.46484 53.216 4.13086 53.0991 3.83203C52.9821 3.5332 52.8124 3.27832 52.59 3.06738C52.3734 2.85058 52.1069 2.68066 51.7906 2.55761C51.4802 2.43457 51.1257 2.36719 50.7273 2.35547L50.723 7.3125ZM60.6157 11.6543C60.6159 11.3789 60.6659 11.1211 60.7658 10.8809C60.8715 10.6348 61.0328 10.4238 61.2497 10.248C61.4725 10.0664 61.7539 9.92285 62.0938 9.81738C62.4338 9.71191 62.844 9.65917 63.3245 9.65917C63.7991 9.65917 64.2062 9.71191 64.546 9.81738C64.8916 9.92285 65.1727 10.0664 65.3894 10.248C65.606 10.4238 65.764 10.6348 65.8634 10.8809C65.9687 11.1211 66.0212 11.3789 66.021 11.6543C66.0207 11.9355 65.9677 12.1992 65.8621 12.4453C65.7622 12.6855 65.6039 12.8965 65.3869 13.0781C65.1699 13.2539 64.8886 13.3945 64.5428 13.5C64.2028 13.6055 63.7956 13.6582 63.321 13.6582C62.8405 13.6582 62.4304 13.6055 62.0906 13.5C61.7509 13.3945 61.4698 13.2539 61.2472 13.0781C61.0306 12.8965 60.8697 12.6855 60.7644 12.4453C60.665 12.1992 60.6154 11.9355 60.6157 11.6543ZM69.4584 10.5996C70.0792 10.916 70.7294 11.1533 71.4089 11.3115C72.0885 11.4697 72.7212 11.5488 73.3072 11.5488C73.981 11.5488 74.4733 11.4521 74.784 11.2588C75.1006 11.0654 75.259 10.8018 75.2593 10.4678C75.2594 10.3623 75.239 10.2539 75.1981 10.1426C75.163 10.0312 75.0898 9.92285 74.9786 9.81738C74.8732 9.70605 74.7239 9.59765 74.5306 9.49218C74.3432 9.38085 74.0972 9.27246 73.7927 9.16699L72.2199 8.63085C71.0952 8.24414 70.249 7.72265 69.6812 7.0664C69.1134 6.40429 68.8299 5.61914 68.8307 4.71093C68.8312 4.125 68.9548 3.5625 69.2013 3.02343C69.4479 2.47851 69.8204 2.00097 70.3188 1.59082C70.8172 1.1748 71.4444 0.843748 72.2005 0.597655C72.9625 0.351561 73.8532 0.228514 74.8727 0.228514C75.3766 0.228514 75.86 0.257811 76.3228 0.316405C76.7857 0.374998 77.2192 0.45117 77.6234 0.54492C78.0335 0.63867 78.4084 0.747069 78.7481 0.870115C79.0879 0.987303 79.3866 1.10449 79.6443 1.22168L78.6936 2.93554C78.5062 2.81836 78.3071 2.71582 78.0962 2.62793C77.8912 2.54004 77.6833 2.46679 77.4724 2.4082C77.2674 2.34961 77.0652 2.30566 76.866 2.27636C76.6669 2.24707 76.4852 2.23242 76.3212 2.23242C76.0399 2.23242 75.7938 2.27051 75.5828 2.34668C75.3718 2.41699 75.193 2.51367 75.0464 2.63672C74.9057 2.7539 74.7972 2.88867 74.7208 3.04101C74.6504 3.1875 74.6151 3.33398 74.615 3.48047C74.6149 3.60937 74.6441 3.73535 74.7026 3.8584C74.7669 3.97558 74.8723 4.09277 75.0187 4.20996C75.1709 4.32129 75.3671 4.43554 75.6072 4.55273C75.8532 4.66406 76.1578 4.78125 76.521 4.90429L77.5754 5.25586C78.7176 5.63671 79.5902 6.16113 80.1931 6.8291C80.7961 7.49707 81.0971 8.30566 81.0963 9.25488C81.0957 9.89941 80.9487 10.4941 80.6553 11.0391C80.3677 11.584 79.9366 12.0557 79.362 12.4541C78.7875 12.8467 78.0724 13.1543 77.2167 13.3769C76.3669 13.5937 75.3795 13.7021 74.2545 13.7021C73.7155 13.7021 73.194 13.6728 72.6901 13.6143C72.1921 13.5615 71.703 13.4795 71.2226 13.3682C70.7481 13.2568 70.2794 13.1162 69.8167 12.9463C69.354 12.7764 68.8912 12.5771 68.4285 12.3486L69.4584 10.5996Z" fill="#242424"/>
</svg>
