<svg width="104" height="19" viewBox="0 0 104 19" fill="none" xmlns="http://www.w3.org/2000/svg">
<path d="M0.174705 1.14732H6.74112L6.71734 15.4029H13.159L13.1567 18H0.159999L0.174705 1.14732ZM15.7446 15.6184C15.7449 15.263 15.8094 14.9304 15.9382 14.6204C16.0746 14.3028 16.2828 14.0307 16.5627 13.8038C16.8502 13.5695 17.2133 13.3842 17.6519 13.2481C18.0905 13.112 18.6199 13.044 19.2398 13.044C19.8522 13.044 20.3776 13.112 20.816 13.2481C21.262 13.3842 21.6247 13.5695 21.9043 13.8038C22.1838 14.0307 22.3877 14.3028 22.516 14.6204C22.6518 14.9304 22.7196 15.263 22.7193 15.6184C22.7189 15.9813 22.6506 16.3215 22.5142 16.6391C22.3854 16.9491 22.181 17.2212 21.9011 17.4556C21.6212 17.6824 21.2581 17.8639 20.8119 18C20.3733 18.1361 19.8477 18.2041 19.2353 18.2041C18.6153 18.2041 18.0862 18.1361 17.6478 18C17.2094 17.8639 16.8466 17.6824 16.5595 17.4556C16.28 17.2212 16.0723 16.9491 15.9365 16.6391C15.8082 16.3215 15.7442 15.9813 15.7446 15.6184ZM31.5968 5.40018L29.6499 1.14732H36.5565L44.798 18.0113L37.3924 18.0113L36.1472 15.3122H29.5014L28.2629 18.0113H25.3936L31.5968 5.40018ZM34.9587 12.7151L32.8306 8.08799L30.7058 12.7151H34.9587ZM47.0003 15.6184C47.0006 15.263 47.0651 14.9304 47.1939 14.6204C47.3303 14.3028 47.5384 14.0307 47.8184 13.8038C48.1059 13.5695 48.469 13.3842 48.9076 13.2481C49.3462 13.112 49.8755 13.044 50.4955 13.044C51.1079 13.044 51.6333 13.112 52.0717 13.2481C52.5177 13.3842 52.8804 13.5695 53.16 13.8038C53.4395 14.0307 53.6434 14.3028 53.7717 14.6204C53.9075 14.9304 53.9753 15.263 53.9749 15.6184C53.9746 15.9813 53.9063 16.3215 53.7699 16.6391C53.6411 16.9491 53.4367 17.2212 53.1568 17.4556C52.8769 17.6824 52.5138 17.8639 52.0676 18C51.629 18.1361 51.1034 18.2041 50.491 18.2041C49.871 18.2041 49.3419 18.1361 48.9035 18C48.4651 17.8639 48.1023 17.6824 47.8152 17.4556C47.5357 17.2212 47.328 16.9491 47.1922 16.6391C47.0639 16.3215 46.9999 15.9813 47.0003 15.6184ZM58.1951 1.14732H66.3039C67.8009 1.13976 69.0899 1.27208 70.1708 1.54426C71.2593 1.80888 72.1549 2.19069 72.8576 2.6897C73.5603 3.1887 74.0777 3.78977 74.4097 4.49291C74.7494 5.18849 74.9188 5.96345 74.918 6.8178C74.9174 7.56631 74.758 8.28457 74.4398 8.97259C74.1293 9.65304 73.6449 10.2541 72.9866 10.7758C72.336 11.2975 71.5039 11.7133 70.4905 12.0233C69.4847 12.3333 68.2862 12.4883 66.895 12.4883H64.7403L64.7354 18H58.1804L58.1951 1.14732ZM64.7424 10.016C65.2641 10.0084 65.7292 9.92901 66.1376 9.77779C66.546 9.61902 66.8902 9.40354 67.1702 9.13136C67.4501 8.85162 67.6621 8.51895 67.8061 8.13336C67.9577 7.7402 68.0337 7.30169 68.0341 6.8178C68.0345 6.34148 67.9593 5.91053 67.8084 5.52493C67.6575 5.13934 67.4385 4.81045 67.1515 4.53827C66.872 4.25853 66.5282 4.03927 66.12 3.8805C65.7194 3.72172 65.2621 3.63478 64.748 3.61965L64.7424 10.016ZM77.5074 15.6184C77.5078 15.263 77.5723 14.9304 77.7011 14.6204C77.8375 14.3028 78.0456 14.0307 78.3256 13.8038C78.6131 13.5695 78.9762 13.3842 79.4148 13.2481C79.8534 13.112 80.3827 13.044 81.0027 13.044C81.6151 13.044 82.1405 13.112 82.5789 13.2481C83.0249 13.3842 83.3876 13.5695 83.6672 13.8038C83.9467 14.0307 84.1506 14.3028 84.2789 14.6204C84.4147 14.9304 84.4825 15.263 84.4821 15.6184C84.4818 15.9813 84.4135 16.3215 84.2771 16.6391C84.1483 16.9491 83.9439 17.2212 83.664 17.4556C83.384 17.6824 83.021 17.8639 82.5748 18C82.1361 18.1361 81.6106 18.2041 80.9982 18.2041C80.3782 18.2041 79.8491 18.1361 79.4107 18C78.9723 17.8639 78.6095 17.6824 78.3224 17.4556C78.0429 17.2212 77.8352 16.9491 77.6994 16.6391C77.5711 16.3215 77.5071 15.9813 77.5074 15.6184ZM88.9177 14.2575C89.7187 14.6657 90.5577 14.972 91.4345 15.1761C92.3114 15.3802 93.1279 15.4823 93.8839 15.4823C94.7534 15.4823 95.3886 15.3575 95.7895 15.108C96.198 14.8585 96.4025 14.5183 96.4028 14.0874C96.403 13.9513 96.3766 13.8114 96.3238 13.6677C96.2786 13.5241 96.1842 13.3842 96.0407 13.2481C95.9047 13.1045 95.712 12.9646 95.4626 12.8285C95.2208 12.6849 94.9034 12.545 94.5104 12.4089L92.4809 11.7171C91.0297 11.2181 89.9378 10.5452 89.2052 9.69841C88.4725 8.84406 88.1067 7.83093 88.1077 6.65903C88.1084 5.90297 88.2678 5.17715 88.586 4.48157C88.9041 3.77843 89.3848 3.16224 90.0279 2.63299C90.671 2.09618 91.4804 1.66901 92.456 1.35146C93.4391 1.03391 94.5885 0.875141 95.904 0.875141C96.5542 0.875141 97.178 0.912945 97.7752 0.988551C98.3724 1.06416 98.9318 1.16245 99.4534 1.28342C99.9825 1.40439 100.466 1.54426 100.905 1.70303C101.343 1.85424 101.729 2.00546 102.061 2.15667L100.834 4.36816C100.592 4.21694 100.336 4.08463 100.063 3.97122C99.7989 3.85781 99.5306 3.76331 99.2585 3.6877C98.9939 3.61209 98.7331 3.55539 98.4761 3.51759C98.2191 3.47978 97.9847 3.46088 97.773 3.46088C97.4101 3.46088 97.0925 3.51002 96.8203 3.60831C96.548 3.69904 96.3173 3.82379 96.1281 3.98256C95.9465 4.13378 95.8065 4.30767 95.7081 4.50425C95.6172 4.69326 95.5716 4.88228 95.5715 5.0713C95.5713 5.23763 95.609 5.40018 95.6845 5.55896C95.7675 5.71017 95.9035 5.86138 96.0923 6.0126C96.2888 6.15625 96.5419 6.30368 96.8518 6.45489C97.1692 6.59855 97.5622 6.74976 98.0309 6.90853L99.3914 7.36217C100.865 7.85361 101.991 8.53029 102.769 9.3922C103.547 10.2541 103.936 11.2975 103.935 12.5223C103.934 13.354 103.744 14.1214 103.366 14.8245C102.994 15.5277 102.438 16.1363 101.697 16.6504C100.955 17.157 100.033 17.5539 98.9286 17.8412C97.8321 18.121 96.558 18.2608 95.1063 18.2608C94.4107 18.2608 93.7379 18.223 93.0877 18.1474C92.4451 18.0794 91.8139 17.9735 91.1941 17.8299C90.5818 17.6862 89.9771 17.5048 89.38 17.2855C88.7829 17.0663 88.1858 16.8092 87.5888 16.5143L88.9177 14.2575Z" fill="#111111"/>
</svg>
