<svg width="24" height="24" viewBox="0 0 24 24" fill="none" xmlns="http://www.w3.org/2000/svg">
<path fill-rule="evenodd" clip-rule="evenodd" d="M7.996 3H17.005C17.5954 3 18.18 3.1163 18.7254 3.34226C19.2708 3.56821 19.7664 3.8994 20.1838 4.31691C20.6012 4.73441 20.9323 5.23006 21.1581 5.77553C21.384 6.321 21.5001 6.90562 21.5 7.496V16.505C21.5 17.0954 21.3837 17.68 21.1577 18.2254C20.9318 18.7708 20.6006 19.2664 20.1831 19.6838C19.7656 20.1012 19.2699 20.4323 18.7245 20.6581C18.179 20.884 17.5944 21.0001 17.004 21H7.996C7.40554 21.0001 6.82084 20.8839 6.2753 20.658C5.72976 20.4321 5.23407 20.101 4.81656 19.6834C4.39904 19.2659 4.06787 18.7702 3.84197 18.2247C3.61607 17.6792 3.49987 17.0945 3.5 16.504V7.496C3.49987 6.90554 3.61607 6.32084 3.84197 5.7753C4.06787 5.22976 4.39904 4.73407 4.81656 4.31656C5.23407 3.89904 5.72976 3.56787 6.2753 3.34197C6.82084 3.11607 7.40554 2.99987 7.996 3Z" fill="#1F8EFB" stroke="white" stroke-width="1.5" stroke-linecap="round" stroke-linejoin="round"/>
<path d="M17.4489 6.71284C17.4025 6.7094 17.3558 6.71559 17.3119 6.73104C17.2679 6.74648 17.2276 6.77084 17.1936 6.80259C17.1595 6.83433 17.1323 6.87278 17.1138 6.91551C17.0953 6.95824 17.0858 7.00434 17.0859 7.05092C17.0861 7.09749 17.0958 7.14353 17.1146 7.18616C17.1334 7.22878 17.1608 7.26706 17.195 7.29861C17.2293 7.33015 17.2697 7.35427 17.3137 7.36945C17.3578 7.38463 17.4045 7.39055 17.4509 7.38684C17.5358 7.38005 17.615 7.34147 17.6726 7.27882C17.7303 7.21617 17.7622 7.13406 17.7619 7.04891C17.7617 6.96376 17.7293 6.88185 17.6713 6.81954C17.6132 6.75723 17.5338 6.71913 17.4489 6.71284Z" fill="#1F8EFB" stroke="white" stroke-width="1.5" stroke-linecap="round" stroke-linejoin="round"/>
<path d="M15.045 9.454C15.7203 10.1292 16.0996 11.0451 16.0996 12C16.0996 12.9549 15.7203 13.8708 15.045 14.546C14.3698 15.2212 13.454 15.6006 12.499 15.6006C11.5441 15.6006 10.6283 15.2212 9.95303 14.546C9.27778 13.8708 8.89844 12.9549 8.89844 12C8.89844 11.5272 8.99157 11.059 9.17252 10.6221C9.35346 10.1853 9.61868 9.78835 9.95303 9.454C10.2874 9.11966 10.6843 8.85444 11.1211 8.67349C11.558 8.49255 12.0262 8.39941 12.499 8.39941C13.454 8.39941 14.3698 8.77876 15.045 9.454Z" fill="#1F8EFB" stroke="white" stroke-width="1.5" stroke-linecap="round" stroke-linejoin="round"/>
</svg>
