<svg width="82" height="14" viewBox="0 0 82 14" fill="none" xmlns="http://www.w3.org/2000/svg">
<path d="M0.685039 0.439451L5.77391 0.439451L5.75548 11.4873H10.7477L10.7459 13.5H0.673641L0.685039 0.439451ZM12.7514 11.6543C12.7517 11.3789 12.8017 11.1211 12.9015 10.8809C13.0072 10.6348 13.1685 10.4238 13.3855 10.248C13.6083 10.0664 13.8897 9.92285 14.2296 9.81738C14.5695 9.71191 14.9797 9.65917 15.4602 9.65917C15.9348 9.65917 16.342 9.71191 16.6817 9.81738C17.0273 9.92285 17.3085 10.0664 17.5251 10.248C17.7418 10.4238 17.8998 10.6348 17.9992 10.8809C18.1044 11.1211 18.1569 11.3789 18.1567 11.6543C18.1565 11.9355 18.1035 12.1992 17.9978 12.4453C17.898 12.6855 17.7396 12.8965 17.5226 13.0781C17.3057 13.2539 17.0243 13.3945 16.6785 13.5C16.3386 13.6055 15.9313 13.6582 15.4567 13.6582C14.9762 13.6582 14.5661 13.6055 14.2264 13.5C13.8866 13.3945 13.6055 13.2539 13.383 13.0781C13.1664 12.8965 13.0054 12.6855 12.9001 12.4453C12.8008 12.1992 12.7512 11.9355 12.7514 11.6543ZM25.0367 3.73535L23.5278 0.439451L28.8803 0.439451L35.2674 13.5088H29.5281L28.5632 11.417H23.4128L22.4529 13.5088H20.2293L25.0367 3.73535ZM27.6421 9.40429L25.9928 5.81836L24.3462 9.40429H27.6421ZM36.9741 11.6543C36.9743 11.3789 37.0243 11.1211 37.1242 10.8809C37.2299 10.6348 37.3912 10.4238 37.6081 10.248C37.8309 10.0664 38.1123 9.92285 38.4522 9.81738C38.7922 9.71191 39.2024 9.65917 39.6828 9.65917C40.1575 9.65917 40.5646 9.71191 40.9044 9.81738C41.25 9.92285 41.5311 10.0664 41.7478 10.248C41.9644 10.4238 42.1224 10.6348 42.2218 10.8809C42.3271 11.1211 42.3796 11.3789 42.3794 11.6543C42.3791 11.9355 42.3261 12.1992 42.2205 12.4453C42.1206 12.6855 41.9623 12.8965 41.7453 13.0781C41.5283 13.2539 41.247 13.3945 40.9012 13.5C40.5612 13.6055 40.154 13.6582 39.6794 13.6582C39.1989 13.6582 38.7888 13.6055 38.449 13.5C38.1093 13.3945 37.8282 13.2539 37.6056 13.0781C37.389 12.8965 37.2281 12.6855 37.1228 12.4453C37.0234 12.1992 36.9738 11.9355 36.9741 11.6543ZM45.6499 0.439451H51.9341C53.0942 0.433592 54.0932 0.536131 54.9309 0.747069C55.7744 0.952147 56.4685 1.24804 57.0131 1.63476C57.5577 2.02148 57.9586 2.4873 58.216 3.03222C58.4792 3.57129 58.6105 4.17187 58.6099 4.83398C58.6094 5.41406 58.4859 5.9707 58.2393 6.5039C57.9986 7.03125 57.6232 7.49707 57.1131 7.90136C56.6088 8.30566 55.964 8.62792 55.1787 8.86816C54.3991 9.10839 53.4703 9.22851 52.3922 9.22851H50.7223L50.7186 13.5H45.6385L45.6499 0.439451ZM50.724 7.3125C51.1283 7.30664 51.4887 7.24511 51.8052 7.12793C52.1217 7.00488 52.3884 6.83789 52.6054 6.62695C52.8224 6.41015 52.9867 6.15234 53.0983 5.85351C53.2157 5.54882 53.2746 5.20898 53.275 4.83398C53.2753 4.46484 53.217 4.13086 53.1 3.83203C52.9831 3.5332 52.8134 3.27832 52.5909 3.06738C52.3743 2.85058 52.1079 2.68066 51.7916 2.55761C51.4811 2.43457 51.1267 2.36719 50.7283 2.35547L50.724 7.3125ZM60.6167 11.6543C60.6169 11.3789 60.6669 11.1211 60.7667 10.8809C60.8724 10.6348 61.0337 10.4238 61.2507 10.248C61.4735 10.0664 61.7549 9.92285 62.0948 9.81738C62.4348 9.71191 62.845 9.65917 63.3254 9.65917C63.8 9.65917 64.2072 9.71191 64.547 9.81738C64.8926 9.92285 65.1737 10.0664 65.3903 10.248C65.607 10.4238 65.765 10.6348 65.8644 10.8809C65.9697 11.1211 66.0222 11.3789 66.0219 11.6543C66.0217 11.9355 65.9687 12.1992 65.863 12.4453C65.7632 12.6855 65.6048 12.8965 65.3879 13.0781C65.1709 13.2539 64.8895 13.3945 64.5438 13.5C64.2038 13.6055 63.7965 13.6582 63.3219 13.6582C62.8415 13.6582 62.4314 13.6055 62.0916 13.5C61.7519 13.3945 61.4707 13.2539 61.2482 13.0781C61.0316 12.8965 60.8706 12.6855 60.7654 12.4453C60.666 12.1992 60.6164 11.9355 60.6167 11.6543ZM69.4594 10.5996C70.0802 10.916 70.7304 11.1533 71.4099 11.3115C72.0895 11.4697 72.7222 11.5488 73.3082 11.5488C73.982 11.5488 74.4743 11.4521 74.785 11.2588C75.1015 11.0654 75.26 10.8018 75.2603 10.4678C75.2604 10.3623 75.2399 10.2539 75.199 10.1426C75.164 10.0312 75.0908 9.92285 74.9796 9.81738C74.8742 9.70605 74.7249 9.59765 74.5316 9.49218C74.3442 9.38085 74.0982 9.27246 73.7936 9.16699L72.2209 8.63085C71.0962 8.24414 70.25 7.72265 69.6822 7.0664C69.1144 6.40429 68.8309 5.61914 68.8317 4.71093C68.8322 4.125 68.9557 3.5625 69.2023 3.02343C69.4489 2.47851 69.8214 2.00097 70.3198 1.59082C70.8182 1.1748 71.4454 0.843748 72.2015 0.597655C72.9634 0.351561 73.8542 0.228514 74.8737 0.228514C75.3776 0.228514 75.861 0.257811 76.3238 0.316405C76.7867 0.374998 77.2202 0.45117 77.6244 0.54492C78.0345 0.63867 78.4094 0.747069 78.7491 0.870115C79.0889 0.987303 79.3876 1.10449 79.6453 1.22168L78.6946 2.93554C78.5072 2.81836 78.308 2.71582 78.0972 2.62793C77.8922 2.54004 77.6842 2.46679 77.4734 2.4082C77.2683 2.34961 77.0662 2.30566 76.867 2.27636C76.6678 2.24707 76.4862 2.23242 76.3221 2.23242C76.0409 2.23242 75.7948 2.27051 75.5838 2.34668C75.3728 2.41699 75.194 2.51367 75.0474 2.63672C74.9066 2.7539 74.7981 2.88867 74.7218 3.04101C74.6514 3.1875 74.6161 3.33398 74.616 3.48047C74.6159 3.60937 74.645 3.73535 74.7035 3.8584C74.7679 3.97558 74.8733 4.09277 75.0196 4.20996C75.1719 4.32129 75.3681 4.43554 75.6082 4.55273C75.8542 4.66406 76.1588 4.78125 76.522 4.90429L77.5763 5.25586C78.7186 5.63671 79.5912 6.16113 80.1941 6.8291C80.797 7.49707 81.0981 8.30566 81.0973 9.25488C81.0967 9.89941 80.9497 10.4941 80.6563 11.0391C80.3687 11.584 79.9376 12.0557 79.363 12.4541C78.7885 12.8467 78.0734 13.1543 77.2177 13.3769C76.3679 13.5937 75.3805 13.7021 74.2555 13.7021C73.7164 13.7021 73.195 13.6728 72.6911 13.6143C72.1931 13.5615 71.7039 13.4795 71.2236 13.3682C70.749 13.2568 70.2804 13.1162 69.8177 12.9463C69.3549 12.7764 68.8922 12.5771 68.4295 12.3486L69.4594 10.5996Z" fill="white"/>
</svg>
