<svg width="24" height="24" viewBox="0 0 24 24" fill="none" xmlns="http://www.w3.org/2000/svg">
<path d="M14.1054 5.83877C14.6377 6.37103 15.0599 7.00292 15.3479 7.69836C15.636 8.39379 15.7843 9.13916 15.7843 9.89189C15.7843 10.6446 15.636 11.39 15.3479 12.0854C15.0599 12.7809 14.6377 13.4127 14.1054 13.945C13.5731 14.4773 12.9413 14.8995 12.2458 15.1875C11.5504 15.4756 10.805 15.6239 10.0523 15.6239C9.29956 15.6239 8.55419 15.4756 7.85876 15.1875C7.16332 14.8995 6.53143 14.4773 5.99917 13.945C4.92422 12.8701 4.32031 11.4121 4.32031 9.89189C4.32031 8.37167 4.92422 6.91372 5.99917 5.83877C7.07412 4.76381 8.53207 4.15991 10.0523 4.15991C11.5725 4.15991 13.0305 4.76381 14.1054 5.83877Z" stroke="#242424" stroke-width="1.44" stroke-linecap="round" stroke-linejoin="round"/>
<path d="M14.0645 13.9775L19.6805 19.6703" stroke="#242424" stroke-width="1.44" stroke-linecap="round" stroke-linejoin="round"/>
</svg>
