<svg width="15" height="15" viewBox="0 0 15 15" fill="none" xmlns="http://www.w3.org/2000/svg">
<path fill-rule="evenodd" clip-rule="evenodd" d="M8.34711 0.682692C8.25786 0.500714 8.07284 0.385376 7.87012 0.385376C7.66746 0.385376 7.48245 0.500714 7.3932 0.682692L5.39124 4.76442L1.41776 5.34938C1.21891 5.37864 1.05361 5.51763 0.990629 5.70851C0.927658 5.89938 0.977794 6.10945 1.12018 6.25131L4.0995 9.21957L3.10206 13.6129C3.05634 13.8143 3.13149 14.0239 3.29474 14.1504C3.45799 14.2769 3.67977 14.2973 3.86337 14.2028L7.87012 12.1392L11.8769 14.2028C12.0605 14.2973 12.2823 14.2769 12.4455 14.1504C12.6088 14.0239 12.684 13.8143 12.6382 13.6129L11.6408 9.21957L14.6201 6.25131C14.7625 6.10945 14.8126 5.89938 14.7497 5.70851C14.6867 5.51763 14.5214 5.37864 14.3225 5.34938L10.349 4.76442L8.34711 0.682692Z" fill="#F59E0B"/>
</svg>
