<svg width="36" height="36" viewBox="0 0 36 36" fill="none" xmlns="http://www.w3.org/2000/svg">
<g style="mix-blend-mode:multiply">
<rect x="2" y="2" width="32" height="32" rx="16" fill="#E9F1FD"/>
<rect x="2" y="2" width="32" height="32" rx="16" stroke="#E9F1FD" stroke-width="4"/>
<path d="M8.54297 27L9.80822 22.3778C9.02747 21.0247 8.61722 19.491 8.61797 17.9183C8.62022 13.0012 12.6215 9 17.5377 9C19.9235 9.00075 22.163 9.93 23.8475 11.616C25.5312 13.302 26.4582 15.543 26.4575 17.9265C26.4552 22.8443 22.454 26.8455 17.5377 26.8455C16.0452 26.8448 14.5745 26.4705 13.2717 25.7595L8.54297 27ZM13.4907 24.1448C14.7477 24.891 15.9477 25.338 17.5347 25.3387C21.6207 25.3387 24.9492 22.0133 24.9515 17.925C24.953 13.8285 21.6402 10.5075 17.5407 10.506C13.4517 10.506 10.1255 13.8315 10.124 17.919C10.1232 19.5878 10.6122 20.8372 11.4335 22.1445L10.6842 24.8805L13.4907 24.1448ZM22.031 20.0468C21.9755 19.9537 21.827 19.8982 21.6035 19.7865C21.3807 19.6748 20.285 19.1355 20.0802 19.0612C19.8762 18.987 19.7277 18.9495 19.5785 19.173C19.43 19.3958 19.0025 19.8982 18.8727 20.0468C18.743 20.1953 18.6125 20.214 18.3897 20.1023C18.167 19.9905 17.4485 19.7557 16.5972 18.996C15.935 18.405 15.4872 17.6753 15.3575 17.4517C15.2277 17.229 15.344 17.1082 15.455 16.9973C15.5555 16.8975 15.6777 16.737 15.7895 16.6065C15.9027 16.4775 15.9395 16.3845 16.0145 16.2353C16.0887 16.0868 16.052 15.9563 15.9957 15.8445C15.9395 15.7335 15.494 14.6363 15.3087 14.19C15.1272 13.7558 14.9435 13.8142 14.807 13.8075L14.3795 13.8C14.231 13.8 13.9895 13.8555 13.7855 14.079C13.5815 14.3025 13.0055 14.841 13.0055 15.9383C13.0055 17.0355 13.8042 18.0953 13.9152 18.2437C14.027 18.3923 15.4865 20.6438 17.7222 21.609C18.254 21.8385 18.6695 21.9757 18.9927 22.0785C19.5267 22.248 20.0127 22.224 20.3967 22.167C20.825 22.1032 21.7152 21.6277 21.9012 21.1073C22.0872 20.586 22.0872 20.1398 22.031 20.0468Z" fill="#1F72EE"/>
</g>
</svg>
