<svg width="24" height="24" viewBox="0 0 24 24" fill="none" xmlns="http://www.w3.org/2000/svg">
<path fill-rule="evenodd" clip-rule="evenodd" d="M22.083 6.37287C21.853 5.36887 21.176 4.57687 20.313 4.30487C18.755 3.81787 12.5 3.81787 12.5 3.81787C12.5 3.81787 6.248 3.81787 4.686 4.30487C3.826 4.57287 3.149 5.36487 2.916 6.37287C2.5 8.19487 2.5 11.9999 2.5 11.9999C2.5 11.9999 2.5 15.8049 2.917 17.6269C3.146 18.6309 3.824 19.4229 4.686 19.6949C6.248 20.1819 12.5 20.1819 12.5 20.1819C12.5 20.1819 18.755 20.1819 20.314 19.6949C21.173 19.4269 21.851 18.6349 22.083 17.6269C22.5 15.8049 22.5 11.9999 22.5 11.9999C22.5 11.9999 22.5 8.19487 22.083 6.37287Z" fill="#1F8EFB" stroke="white" stroke-width="1.5" stroke-linecap="round" stroke-linejoin="round"/>
<path fill-rule="evenodd" clip-rule="evenodd" d="M10.502 15L15.698 12L10.502 9V15Z" fill="#1F8EFB" stroke="white" stroke-width="1.5" stroke-linecap="round" stroke-linejoin="round"/>
</svg>
