<svg width="36" height="36" viewBox="0 0 36 36" fill="none" xmlns="http://www.w3.org/2000/svg">
<g style="mix-blend-mode:multiply">
<rect x="2" y="2" width="32" height="32" rx="16" fill="#F1F2F8"/>
<rect x="2" y="2" width="32" height="32" rx="16" stroke="#F9F5FF" stroke-width="4"/>
<path d="M14.4133 17.1933C15.3733 19.08 16.92 20.6267 18.8067 21.5867L20.2733 20.12C20.46 19.9333 20.72 19.88 20.9533 19.9533C21.7 20.2 22.5 20.3333 23.3333 20.3333C23.5101 20.3333 23.6797 20.4036 23.8047 20.5286C23.9298 20.6536 24 20.8232 24 21V23.3333C24 23.5101 23.9298 23.6797 23.8047 23.8047C23.6797 23.9298 23.5101 24 23.3333 24C20.3275 24 17.4449 22.806 15.3195 20.6805C13.194 18.5551 12 15.6725 12 12.6667C12 12.4899 12.0702 12.3203 12.1953 12.1953C12.3203 12.0702 12.4899 12 12.6667 12H15C15.1768 12 15.3464 12.0702 15.4714 12.1953C15.5964 12.3203 15.6667 12.4899 15.6667 12.6667C15.6667 13.5 15.8 14.3 16.0467 15.0467C16.12 15.28 16.0667 15.54 15.88 15.7267L14.4133 17.1933Z" fill="#1F72EE"/>
</g>
</svg>
