<svg width="36" height="36" viewBox="0 0 36 36" fill="none" xmlns="http://www.w3.org/2000/svg">
<g style="mix-blend-mode:multiply">
<rect x="2" y="2" width="32" height="32" rx="16" fill="#E9F1FD"/>
<rect x="2" y="2" width="32" height="32" rx="16" stroke="#F9F5FF" stroke-width="4"/>
<path d="M22.9545 17.6766V15.3091C22.9545 12.9329 20.9569 11 18.5 11C16.0431 11 14.0455 12.9324 14.0455 15.3091V17.6766H13V25H24V17.6766H22.9545ZM15.8022 15.3091C15.8022 13.87 17.0118 12.6994 18.5 12.6994C19.9882 12.6994 21.1978 13.8695 21.1978 15.3091V17.6766H15.8022V15.3091ZM19.6404 23.3196H17.3591L17.9725 21.5391C17.7735 21.4445 17.6058 21.298 17.4883 21.1161C17.3707 20.9343 17.3081 20.7242 17.3074 20.5097C17.3074 20.2039 17.433 19.9106 17.6566 19.6943C17.8801 19.4781 18.1833 19.3566 18.4995 19.3566C18.8156 19.3566 19.1189 19.4781 19.3424 19.6943C19.566 19.9106 19.6915 20.2039 19.6915 20.5097C19.6915 20.9623 19.4195 21.3497 19.027 21.5391L19.6404 23.3196Z" fill="#1F72EE"/>
</g>
</svg>
