<svg width="36" height="36" viewBox="0 0 36 36" fill="none" xmlns="http://www.w3.org/2000/svg">
<g style="mix-blend-mode:multiply">
<rect x="2" y="2" width="32" height="32" rx="16" fill="#F1F2F8"/>
<rect x="2" y="2" width="32" height="32" rx="16" stroke="#F9F5FF" stroke-width="4"/>
<path d="M11.3333 19.6664L17.7615 22.8805C17.849 22.9242 17.8927 22.9461 17.9385 22.9547C17.9792 22.9623 18.0209 22.9623 18.0615 22.9547C18.1073 22.9461 18.1511 22.9242 18.2385 22.8805L24.6667 19.6664M11.3333 16.3331L17.7615 13.119C17.849 13.0752 17.8927 13.0534 17.9385 13.0448C17.9792 13.0372 18.0209 13.0372 18.0615 13.0448C18.1073 13.0534 18.1511 13.0752 18.2385 13.119L24.6667 16.3331L18.2385 19.5471C18.1511 19.5909 18.1073 19.6127 18.0615 19.6213C18.0209 19.6289 17.9792 19.6289 17.9385 19.6213C17.8927 19.6127 17.849 19.5909 17.7615 19.5471L11.3333 16.3331Z" stroke="#1F72EE" stroke-width="1.33333" stroke-linecap="round" stroke-linejoin="round"/>
</g>
</svg>
