<svg width="36" height="36" viewBox="0 0 36 36" fill="none" xmlns="http://www.w3.org/2000/svg">
<g style="mix-blend-mode:multiply">
<rect x="2" y="2" width="32" height="32" rx="16" fill="#E9F1FD"/>
<rect x="2" y="2" width="32" height="32" rx="16" stroke="#E9F1FD" stroke-width="4"/>
<g clip-path="url(#clip0_21_1216)">
<path d="M20.6673 21.3711L22.0451 19.9928C22.2307 19.8094 22.4654 19.6839 22.7209 19.6315C22.9764 19.5791 23.2416 19.602 23.4844 19.6974L25.1635 20.3681C25.4088 20.4677 25.6191 20.6377 25.768 20.8567C25.9169 21.0758 25.9976 21.3339 26 21.5988L26 24.6753C25.9986 24.8555 25.9607 25.0335 25.8887 25.1986C25.8167 25.3638 25.712 25.5126 25.581 25.6362C25.45 25.7598 25.2953 25.8556 25.1263 25.9178C24.9573 25.9801 24.7775 26.0074 24.5976 25.9983C12.8314 25.2661 10.4572 15.2979 10.0082 11.4829C9.98735 11.2956 10.0064 11.106 10.0641 10.9265C10.1217 10.7471 10.2168 10.5819 10.3428 10.4418C10.4689 10.3017 10.6232 10.1899 10.7956 10.1138C10.9679 10.0376 11.1545 9.99887 11.3429 10H14.3137C14.5788 10.0008 14.8376 10.0809 15.0568 10.23C15.276 10.3792 15.4456 10.5905 15.5438 10.8369L16.2142 12.5167C16.3128 12.7585 16.338 13.0241 16.2865 13.2802C16.2351 13.5362 16.1094 13.7715 15.9252 13.9565L14.5474 15.3348C14.5474 15.3348 15.3408 20.7065 20.6673 21.3711Z" fill="#1F72EE"/>
</g>
</g>
<defs>
<clipPath id="clip0_21_1216">
<rect width="16" height="16" fill="white" transform="translate(10 10)"/>
</clipPath>
</defs>
</svg>
